# xmcd
#
# Track frame offsets:
#	150
#	12898
#	27413
#	44338
#	64250
#	74218
#	90365
#	101885
#	113195
#	127220
#
# Disc length: 1870 seconds
#
# Revision: 1
# Processed by: cddbd v1.5.1PL0 Copyright (c) Steve Scherf et al.
# Submitted via: MusicWizard 7.0.2
#
DISCID=92074c0a
DTITLE=George Strait - Livin' It Up
DYEAR=1990
DGENRE=Country
TTITLE0=Some Had To Teach You
TTITLE1=Heaven Must Be Wondering Where You Are
TTITLE2=I've Come To Expect It From You
TTITLE3=Lonesome Rodeo Cowboy
TTITLE4=When You're A Man On Your Own
TTITLE5=Drinking Champagne
TTITLE6=We're Supposed To Do That Now And Then
TTITLE7=She Loves Me (She Don't Love You)
TTITLE8=Love Without End, Amen
TTITLE9=Stranger In My Arms
EXTD=(c)1990 MCA\nupc 022925723826\nMCA 2292-57238-2\nProduced by Jimmy Bowen for Lynwood Producti
EXTD=ons and George Strait for George Strait Productions
EXTT0=
EXTT1=
EXTT2=
EXTT3=
EXTT4=
EXTT5=
EXTT6=
EXTT7=
EXTT8=
EXTT9=
PLAYORDER=
